<?xml version="1.0" encoding="UTF-8" standalone="no"?>
<!-- Created with Inkscape (http://www.inkscape.org/) -->

<svg
   width="2560"
   height="1440"
   viewBox="0 0 2560 1440"
   version="1.1"
   id="svg1"
   inkscape:version="1.3.2 (091e20e, 2023-11-25, custom)"
   sodipodi:docname="bg_portfolio.svg"
   xmlns:inkscape="http://www.inkscape.org/namespaces/inkscape"
   xmlns:sodipodi="http://sodipodi.sourceforge.net/DTD/sodipodi-0.dtd"
   xmlns:xlink="http://www.w3.org/1999/xlink"
   xmlns="http://www.w3.org/2000/svg"
   xmlns:svg="http://www.w3.org/2000/svg">
  <sodipodi:namedview
     id="namedview1"
     pagecolor="#ffffff"
     bordercolor="#000000"
     borderopacity="0.25"
     inkscape:showpageshadow="2"
     inkscape:pageopacity="0.0"
     inkscape:pagecheckerboard="true"
     inkscape:deskcolor="#d1d1d1"
     inkscape:document-units="px"
     showgrid="false"
     inkscape:zoom="2.8284272"
     inkscape:cx="161.39712"
     inkscape:cy="653.18987"
     inkscape:window-width="1920"
     inkscape:window-height="991"
     inkscape:window-x="-9"
     inkscape:window-y="-9"
     inkscape:window-maximized="1"
     inkscape:current-layer="layer1">
    <inkscape:grid
       id="grid6"
       units="px"
       originx="0"
       originy="0"
       spacingx="1"
       spacingy="1"
       empcolor="#0099e5"
       empopacity="0.30196078"
       color="#0099e5"
       opacity="0.14901961"
       empspacing="5"
       dotted="false"
       gridanglex="30"
       gridanglez="30"
       visible="false" />
  </sodipodi:namedview>
  <defs
     id="defs1">
    <linearGradient
       id="linearGradient1"
       inkscape:collect="always">
      <stop
         style="stop-color:#e5e5e5;stop-opacity:0.9;"
         offset="0"
         id="stop1" />
      <stop
         style="stop-color:#aaaff3;stop-opacity:0.1;"
         offset="1"
         id="stop2" />
    </linearGradient>
    <linearGradient
       inkscape:collect="always"
       xlink:href="#linearGradient1"
       id="linearGradient2"
       x1="19.441243"
       y1="553.32274"
       x2="2611.7734"
       y2="553.32274"
       gradientUnits="userSpaceOnUse" />
  </defs>
  <g
     inkscape:label="Layer 1"
     inkscape:groupmode="layer"
     id="layer1"
     style="display:inline">
    <rect
       style="display:none;fill:#de8787;stroke:#3bc1e7;stroke-width:0"
       id="rect1"
       width="3851.1479"
       height="2656.3176"
       x="-158.96883"
       y="-676.89948" />
    <path
       id="path1"
       style="display:inline;fill:url(#linearGradient2);fill-opacity:0.9;stroke:#3bc1e7;stroke-width:0"
       d="M 1318.2148,-331.53125 C 998.71559,-331.18063 659.48498,-235.74036 378.50195,-55.404297 21.165909,173.93545 -27.376644,672.46434 52.199219,1443.209 c 854.275161,0.098 1706.491681,-9.9395 2559.927781,-0.082 0,0 -889.3975,-923.88314 -467.8008,-1060.33834 C 2418.2639,294.1256 2284.1631,138.98052 2214.9727,48.527344 2017.0723,-210.18939 1680.314,-331.92861 1318.2148,-331.53125 Z m 571.5594,761.07036 c 157.2693,-28.81003 -27.6828,127.26085 -24.3549,229.10303 24.9278,762.86406 82.441,540.66286 -416.3078,194.93354 -131.7923,-91.35752 -91.3521,-326.57725 440.6627,-424.03657 z"
       sodipodi:nodetypes="ssccsssssss" />
    <path
       style="display:inline;fill:#ffffff;fill-opacity:0.3;stroke:#3bc1e7;stroke-width:0"
       d="M 37.981711,1576.7926 C -17.192157,1223.3187 -7.0364777,648.84732 50.682992,294.59894 345.67088,-966.90682 2276.1899,-401.70002 2555.5203,-93.246058 c 11.1171,12.276203 107.033,274.531298 98.1009,287.994758 -2.1277,3.20703 -59.0746,386.39231 -76.6795,377.52228 -41.4661,-20.89225 -18.6795,-361.28922 -129.8379,-487.458349 -20.8452,-23.660168 -56.1037,-36.823786 -87.6156,-35.671484 -49.7577,1.819501 -108.0528,53.301713 -133.8629,66.279693 -435.4888,218.97521 661.3868,1083.84286 661.3868,1083.84286 z"
       id="path1-2"
       sodipodi:nodetypes="cssssaascc" />
    <path
       style="display:inline;fill:#e5e5e5;fill-opacity:0.6;stroke:#3bc1e7;stroke-width:0"
       d="M -89.017742,2466.6711 C -342.6894,1521.2286 -93.32078,1388.0316 -25.582482,924.44894 -19.804997,884.90939 -0.12146957,796.83718 0.62147212,735.13551 2.0438262,617.00829 13.70516,307.42406 28.48856,184.26915 190.39595,-1164.52 2945.2709,-677.82847 2142.6986,-11.525457 1684.8742,368.56463 2975.4387,1375.4072 2975.4387,1375.4072 Z"
       id="path1-2-2"
       sodipodi:nodetypes="csssscc"
       inkscape:transform-center-x="60"
       inkscape:transform-center-y="-168.6223" />
  </g>
</svg>
