<?xml version="1.0" encoding="UTF-8" standalone="no"?>
<!-- Created with Inkscape (http://www.inkscape.org/) -->

<svg
   width="720"
   height="1080"
   viewBox="0 0 720 1080"
   version="1.1"
   id="svg1"
   inkscape:version="1.3.2 (091e20e, 2023-11-25, custom)"
   sodipodi:docname="bg_portfolio_m.svg"
   xmlns:inkscape="http://www.inkscape.org/namespaces/inkscape"
   xmlns:sodipodi="http://sodipodi.sourceforge.net/DTD/sodipodi-0.dtd"
   xmlns:xlink="http://www.w3.org/1999/xlink"
   xmlns="http://www.w3.org/2000/svg"
   xmlns:svg="http://www.w3.org/2000/svg">
  <sodipodi:namedview
     id="namedview1"
     pagecolor="#ffffff"
     bordercolor="#000000"
     borderopacity="0.25"
     inkscape:showpageshadow="2"
     inkscape:pageopacity="0.0"
     inkscape:pagecheckerboard="true"
     inkscape:deskcolor="#d1d1d1"
     inkscape:document-units="px"
     showgrid="false"
     inkscape:zoom="0.1767767"
     inkscape:cx="265.87214"
     inkscape:cy="285.67113"
     inkscape:window-width="1920"
     inkscape:window-height="991"
     inkscape:window-x="-9"
     inkscape:window-y="-9"
     inkscape:window-maximized="1"
     inkscape:current-layer="layer1">
    <inkscape:grid
       id="grid6"
       units="px"
       originx="0"
       originy="0"
       spacingx="1"
       spacingy="1"
       empcolor="#0099e5"
       empopacity="0.30196078"
       color="#0099e5"
       opacity="0.14901961"
       empspacing="5"
       dotted="false"
       gridanglex="30"
       gridanglez="30"
       visible="false" />
  </sodipodi:namedview>
  <defs
     id="defs1">
    <linearGradient
       id="linearGradient1"
       inkscape:collect="always">
      <stop
         style="stop-color:#e5e5e5;stop-opacity:0.9;"
         offset="0"
         id="stop1" />
      <stop
         style="stop-color:#aaaff3;stop-opacity:0.1;"
         offset="1"
         id="stop2" />
    </linearGradient>
    <linearGradient
       inkscape:collect="always"
       xlink:href="#linearGradient1"
       id="linearGradient2"
       x1="19.441242"
       y1="553.32275"
       x2="2611.7734"
       y2="553.32275"
       gradientUnits="userSpaceOnUse"
       gradientTransform="matrix(0.25221894,-0.00467511,0,0.5,82.69799,30.531349)" />
  </defs>
  <g
     inkscape:label="Layer 1"
     inkscape:groupmode="layer"
     id="layer1"
     style="display:inline">
    <rect
       style="display:none;fill:#de8787;stroke:#3bc1e7;stroke-width:0"
       id="rect1"
       width="3851.1479"
       height="2656.3176"
       x="-158.96883"
       y="-676.89948" />
    <g
       id="g1"
       transform="matrix(1.4,0,0,1.4,-136.73549,66.895784)">
      <path
         id="path1"
         style="display:inline;fill:url(#linearGradient2);fill-opacity:0.9;stroke:#3bc1e7;stroke-width:0"
         d="M 415.17675,-141.39708 C 334.59295,-139.72807 249.03257,-90.421999 178.16335,1.0596592 88.036435,117.40012 75.793082,366.89151 95.863623,751.89185 311.32797,747.94702 526.27314,738.94401 741.5259,739.88289 c 0,0 -220.2823,-491.1186 -113.94761,-561.31721 C 696.67054,132.95346 658.80717,89.342885 641.35604,44.439768 591.44181,-83.993385 506.50503,-143.28861 415.17675,-141.39708 Z m -3.32417,551.10424 c 40.39801,-0.45259 92.06545,-35.16627 121.00098,-6.97159 21.99325,21.43015 -15.35324,64.00216 -2.91228,92.07665 8.801,19.86048 53.27842,20.81152 49.63779,42.22746 -7.62347,44.8449 -82.37812,56.12842 -127.32173,49.11029 -42.81165,-6.68522 -75.26362,-46.85297 -101.2459,-81.52934 -21.31232,-28.44376 -61.111,-69.28309 -40.8561,-98.48927 19.33034,-27.87304 67.77934,3.95579 101.69724,3.5758 z"
         sodipodi:nodetypes="ssccsssaaaaaaaa" />
      <path
         style="display:inline;fill:#ffffff;fill-opacity:0.3;stroke:#3bc1e7;stroke-width:0"
         d="M 73.28192,812.77661 C 59.713621,636.03961 48.093037,435.97549 68.39563,259.44713 83.084955,131.72539 116.10693,27.155909 138.87642,-48.443994 235.57865,-369.51738 637.60941,-145.24017 692.39241,-22.242759 825.12855,275.77307 716.1227,42.725397 644.18443,48.950851 579.67007,60.911523 591.36994,171.57788 547.62536,220.48159 c -23.46216,26.22922 -90.45792,45.80093 -85.68085,61.68305 5.30416,17.63449 72.73953,27.82923 108.3376,48.98122 59.43235,35.31407 115.66024,102.38431 102.38134,195.64891 C 641.45967,745.95497 73.28192,812.77661 73.28192,812.77661 Z"
         id="path1-2"
         sodipodi:nodetypes="csssaasssc" />
      <path
         style="display:inline;fill:#e5e5e5;fill-opacity:0.6;stroke:#3bc1e7;stroke-width:0"
         d="M 7.0571448,1257.7158 C -92.871384,547.04693 75.19504,184.39506 100.70477,105.08628 307.61321,-538.18414 802.13966,-314.53397 591.83959,18.617541 557.3457,73.261798 611.64388,168.02191 577.50175,229.74726 c -16.51372,29.85506 -84.97154,52.68493 -82.81791,60.14517 7.80067,27.02172 133.94854,21.73472 147.18187,48.33977 89.90613,180.75243 29.60749,270.99457 29.60749,270.99457 z"
         id="path1-2-2"
         sodipodi:nodetypes="cssasscc"
         inkscape:transform-center-x="15.721955"
         inkscape:transform-center-y="-84.311156" />
    </g>
  </g>
</svg>
